<svg width="42" height="42" viewBox="0 0 42 42" fill="none" xmlns="http://www.w3.org/2000/svg">
<path d="M32.75 5.25C34.15 5.25 34.85 5.25007 35.3848 5.52246C35.8552 5.76214 36.2379 6.14483 36.4775 6.61523C36.7499 7.14999 36.75 7.85002 36.75 9.25V32.75C36.75 34.15 36.7499 34.85 36.4775 35.3848C36.2379 35.8552 35.8552 36.2379 35.3848 36.4775C34.85 36.7499 34.15 36.75 32.75 36.75H9.25C7.85002 36.75 7.14999 36.7499 6.61523 36.4775C6.14483 36.2379 5.76214 35.8552 5.52246 35.3848C5.25007 34.85 5.25 34.15 5.25 32.75V9.25C5.25 7.85002 5.25007 7.14999 5.52246 6.61523C5.76214 6.14483 6.14483 5.76214 6.61523 5.52246C7.14999 5.25007 7.85002 5.25 9.25 5.25H32.75ZM14 15.75C11.1005 15.75 8.75 18.1005 8.75 21C8.75 23.8995 11.1005 26.25 14 26.25C16.5575 26.25 18.6873 24.4212 19.1543 22H23.5V24.5C23.5 25.0523 23.9477 25.5 24.5 25.5C25.0523 25.5 25.5 25.0523 25.5 24.5V22H28.75V24.5C28.75 25.0523 29.1977 25.5 29.75 25.5C30.3023 25.5 30.75 25.0523 30.75 24.5V21.1504C30.75 20.5153 30.2347 20 29.5996 20H19.1543C18.6873 17.5788 16.5575 15.75 14 15.75ZM14 17.75C15.4735 17.75 16.7168 18.731 17.1152 20.0752C16.7537 20.2258 16.5 20.5839 16.5 21C16.5 21.416 16.7538 21.7731 17.1152 21.9238C16.7171 23.2685 15.4738 24.25 14 24.25C12.2051 24.25 10.75 22.7949 10.75 21C10.75 19.2051 12.2051 17.75 14 17.75Z" fill="#222222"/>
</svg>
