<svg width="44" height="41" viewBox="0 0 44 41" fill="none" xmlns="http://www.w3.org/2000/svg">
<path d="M32.5 8.54199C35.3281 8.54199 36.7424 8.54157 37.6211 9.41992C38.4998 10.2986 38.5 11.7136 38.5 14.542V26.458C38.5 29.2864 38.4998 30.7014 37.6211 31.5801C36.7424 32.4584 35.3281 32.458 32.5 32.458H11.5C8.67192 32.458 7.25761 32.4584 6.37891 31.5801C5.50023 30.7014 5.5 29.2864 5.5 26.458V14.542C5.5 11.7136 5.50023 10.2986 6.37891 9.41992C7.25761 8.54157 8.67192 8.54199 11.5 8.54199H32.5ZM33.8496 14.8477C33.5582 14.3786 32.9417 14.2342 32.4727 14.5254L22 21.0312L11.5273 14.5254C11.0582 14.2342 10.4418 14.3786 10.1504 14.8477C9.85922 15.3168 10.0036 15.9332 10.4727 16.2246L20.9443 22.7295C21.5906 23.131 22.4094 23.131 23.0557 22.7295L33.5273 16.2246C33.9964 15.9332 34.1408 15.3168 33.8496 14.8477Z" fill="#222222"/>
</svg>
