<svg width="51" height="50" viewBox="0 0 51 50" fill="none" xmlns="http://www.w3.org/2000/svg">
<g clip-path="url(#clip0_1_80)">
<path d="M9.54599 49.174C19.857 50.2756 30.1681 50.2756 40.4791 49.174C44.6815 48.6867 48.7109 44.6584 49.1995 40.4582C50.3016 30.1526 50.3016 19.8469 49.1995 9.54122C48.7119 5.34103 44.6815 1.31368 40.4791 0.825401C30.1681 -0.276161 19.857 -0.276161 9.54599 0.825401C5.3436 1.31368 1.31416 5.34103 0.826602 9.54122C-0.275534 19.8469 -0.275534 30.1526 0.826602 40.4582C1.31416 44.6584 5.34458 48.6858 9.54696 49.174H9.54599ZM25.013 7.32735C29.3874 7.32735 32.9332 10.8713 32.9332 15.2434C32.9332 19.6154 29.3874 23.1594 25.013 23.1594C20.6387 23.1594 17.0929 19.6154 17.0929 15.2434C17.0929 10.8713 20.6387 7.32735 25.013 7.32735ZM11.1865 34.4465C13.5051 29.6291 18.8389 25.3977 25.013 25.3567C31.1871 25.3977 36.521 29.6281 38.8396 34.4465C40.0804 36.9963 38.012 40.7912 34.9039 41.5754C28.3517 43.0363 21.6754 43.0363 15.1241 41.5754C12.016 40.7912 9.94659 36.9953 11.1884 34.4465H11.1865Z" fill="#4149B7"/>
</g>
<defs>
<clipPath id="clip0_1_80">
<rect width="50.0261" height="50" fill="white"/>
</clipPath>
</defs>
</svg>
