<svg width="39" height="39" viewBox="0 0 39 39" fill="none" xmlns="http://www.w3.org/2000/svg">
<path d="M27.75 3.25C31.5212 3.25 33.4066 3.2503 34.5781 4.42188C35.7497 5.59345 35.75 7.47876 35.75 11.25V27.75C35.75 31.5212 35.7497 33.4066 34.5781 34.5781C33.4066 35.7497 31.5212 35.75 27.75 35.75H11.25C7.47876 35.75 5.59345 35.7497 4.42188 34.5781C3.2503 33.4066 3.25 31.5212 3.25 27.75V11.25C3.25 7.47876 3.2503 5.59345 4.42188 4.42188C5.59345 3.2503 7.47876 3.25 11.25 3.25H27.75ZM19.5 25C17.1336 25 14.8335 25.7811 12.9561 27.2217C11.0786 28.6623 9.72869 30.682 9.11621 32.9678C8.97335 33.5012 9.28991 34.0494 9.82324 34.1924C10.3567 34.3353 10.9049 34.0188 11.0479 33.4854C11.5463 31.625 12.645 29.9811 14.1729 28.8086C15.701 27.636 17.5738 27 19.5 27C21.4262 27 23.299 27.636 24.8271 28.8086C26.355 29.9811 27.4537 31.625 27.9521 33.4854C28.0951 34.0188 28.6433 34.3353 29.1768 34.1924C29.7101 34.0494 30.0267 33.5012 29.8838 32.9678C29.2713 30.682 27.9214 28.6623 26.0439 27.2217C24.1665 25.7811 21.8664 25 19.5 25ZM19.5 8.75C16.2553 8.75 13.625 11.3803 13.625 14.625C13.625 17.8697 16.2553 20.5 19.5 20.5C22.7447 20.5 25.375 17.8697 25.375 14.625C25.375 11.3803 22.7447 8.75 19.5 8.75ZM19.5 10.75C21.6401 10.75 23.375 12.4849 23.375 14.625C23.375 16.7651 21.6401 18.5 19.5 18.5C17.3599 18.5 15.625 16.7651 15.625 14.625C15.625 12.4849 17.3599 10.75 19.5 10.75Z" fill="#222222"/>
<rect x="3.75" y="3.75" width="31.5" height="31.5" rx="3.5" stroke="#222222"/>
</svg>
