<svg width="150" height="150" viewBox="0 0 150 150" fill="none" xmlns="http://www.w3.org/2000/svg">
<path fill-rule="evenodd" clip-rule="evenodd" d="M92.5029 107.128L130.605 85.1303C134.576 82.8369 139.002 82.9102 142.654 85.7745C148.342 90.235 149.472 99.7093 141.633 104.234L91.8212 132.993C87.918 135.247 83.6298 135.803 79.2809 134.616L51.2705 126.971C48.6974 126.269 46.2437 126.674 44.0271 128.165L39.2169 131.403C38.2577 132.047 36.9405 131.708 36.4196 130.583L22.1248 101.465C21.6792 100.554 22.0293 99.45 22.9208 98.9654L48.8031 84.9114C52.9451 82.662 57.4187 82.2305 61.9044 83.652L87.8318 91.8677C95.2501 94.2185 96.1246 102.81 91.7512 107.499C92.0043 107.395 92.2551 107.271 92.5029 107.128ZM66.0634 104.211C65.0693 103.87 64.5396 102.787 64.8807 101.793C65.2217 100.799 66.3042 100.27 67.2982 100.611L84.281 106.459C90.9754 107.323 93.2169 97.5671 86.6863 95.4978L60.7589 87.2821C57.2315 86.1644 53.8633 86.482 50.6184 88.2439L26.3333 101.431L38.9043 127.038C41.5533 125.254 43.6653 123.529 46.9015 122.997C48.642 122.711 50.4426 122.813 52.2675 123.311L80.2779 130.956C83.6623 131.88 86.8823 131.466 89.9207 129.711L139.743 100.946C148.01 96.1743 140.659 83.5936 132.5 88.415L94.3923 110.416C91.9832 111.807 89.3403 112.088 86.6954 111.236C79.779 109.004 72.9361 106.578 66.0634 104.211Z" fill="#AD2020"/>
<path fill-rule="evenodd" clip-rule="evenodd" d="M46.2295 132.677C48.0629 135.853 46.8843 139.946 43.7401 141.638L35.5895 146.343C32.4726 148.143 28.4797 147.067 26.6856 143.96L3.65528 104.07C1.85821 100.957 2.92842 96.958 6.03917 95.1583L14.2877 90.3961C17.4034 88.5973 21.3992 89.6675 23.1992 92.7803C30.8926 106.068 38.552 119.379 46.2295 132.677ZM42.9415 134.567L19.9112 94.6843C19.1633 93.3902 17.4787 92.9411 16.192 93.6838L7.94346 98.446C6.66114 99.2036 6.19327 100.866 6.94327 102.165L29.9735 142.055C30.7221 143.351 32.4134 143.798 33.7001 143.055L41.9413 138.293C43.2383 137.544 43.6845 135.853 42.9415 134.567Z" fill="#AD2020"/>
<path fill-rule="evenodd" clip-rule="evenodd" d="M75.7573 2.94315L105.492 15.8988C106.184 16.2003 106.637 16.8835 106.637 17.6396V41.049C106.637 60.0451 93.6003 76.5981 75.4746 81.3129C75.1362 81.4008 74.7955 81.3911 74.482 81.302C65.4615 78.9378 57.6123 73.6052 52.0553 66.4239C46.609 59.3856 43.3594 50.5763 43.3594 41.049V17.6393C43.3594 16.805 43.8958 16.096 44.6429 15.8385L74.2397 2.94286C74.7434 2.72342 75.2903 2.73954 75.7573 2.94315ZM102.829 18.8806L74.9988 6.75497L47.1686 18.8806V41.0487C47.1686 49.7115 50.1179 57.7145 55.0611 64.1027C60.0237 70.5161 66.9917 75.3064 74.9988 77.5098C83.0063 75.3064 89.9739 70.5161 94.9365 64.1027C99.8795 57.7148 102.829 49.7115 102.829 41.0487V18.8806Z" fill="#AD2020"/>
<path fill-rule="evenodd" clip-rule="evenodd" d="M55.7667 45.7025C55.0231 44.959 55.0231 43.7531 55.7667 43.0096C56.5102 42.266 57.7161 42.266 58.4596 43.0096L67.5191 52.069L91.5373 28.0509C92.2808 27.3073 93.4867 27.3073 94.2302 28.0509C94.9738 28.7944 94.9738 30.0003 94.2302 30.7438L68.8656 56.1085C68.122 56.852 66.9162 56.852 66.1726 56.1085L55.7667 45.7025Z" fill="#AD2020"/>
</svg>
