<svg width="69" height="69" viewBox="0 0 69 69" fill="none" xmlns="http://www.w3.org/2000/svg">
<path d="M7.66666 69C5.55833 69 3.75411 68.2499 2.254 66.7498C0.753889 65.2497 0.00255555 63.4442 0 61.3333V13.5125C0 12.6181 0.144388 11.7556 0.433166 10.925C0.721944 10.0945 1.15256 9.32779 1.725 8.62502L6.51666 2.77919C7.21944 1.88474 8.09727 1.1973 9.15016 0.716853C10.2031 0.236409 11.3058 -0.00253527 12.4583 2.02822e-05H56.5416C57.6916 2.02822e-05 58.7944 0.240242 59.8498 0.720687C60.9052 1.20113 61.7831 1.8873 62.4833 2.77919L67.275 8.62502C67.85 9.32779 68.2819 10.0945 68.5706 10.925C68.8594 11.7556 69.0025 12.6181 69 13.5125V61.3333C69 63.4417 68.2499 65.2472 66.7498 66.7498C65.2497 68.2525 63.4442 69.0026 61.3333 69H7.66666ZM9.2 11.5H59.8L56.5416 7.66668H12.4583L9.2 11.5ZM34.5 26.8333C33.4139 26.8333 32.5041 27.2013 31.7707 27.9373C31.0372 28.6733 30.6692 29.5831 30.6667 30.6667V42.9333L27.2167 39.4833C26.5139 38.7806 25.6194 38.4292 24.5333 38.4292C23.4472 38.4292 22.5528 38.7806 21.85 39.4833C21.1472 40.1861 20.7958 41.0806 20.7958 42.1667C20.7958 43.2528 21.1472 44.1472 21.85 44.85L31.8167 54.8167C32.5833 55.5833 33.4778 55.9667 34.5 55.9667C35.5222 55.9667 36.4166 55.5833 37.1833 54.8167L47.15 44.85C47.8528 44.1472 48.2041 43.2528 48.2041 42.1667C48.2041 41.0806 47.8528 40.1861 47.15 39.4833C46.4472 38.7806 45.5528 38.4292 44.4666 38.4292C43.3805 38.4292 42.4861 38.7806 41.7833 39.4833L38.3333 42.9333V30.6667C38.3333 29.5806 37.9653 28.6708 37.2293 27.9373C36.4933 27.2039 35.5835 26.8359 34.5 26.8333Z" fill="#AD2020"/>
</svg>
