<svg width="23" height="22" viewBox="0 0 23 22" fill="none" xmlns="http://www.w3.org/2000/svg">
<g clip-path="url(#clip0_193_1017)">
<path d="M11.5 8.91003C13.8817 8.91003 15.8125 7.06321 15.8125 4.78503C15.8125 2.50686 13.8817 0.660034 11.5 0.660034C9.11827 0.660034 7.1875 2.50686 7.1875 4.78503C7.1875 7.06321 9.11827 8.91003 11.5 8.91003Z" fill="#565563"/>
<path d="M22.1797 18.4525C21.7323 16.5043 20.7066 14.7211 19.2256 13.3169C18.8661 12.9719 18.4766 12.6568 18.0612 12.375C16.1695 11.0177 13.8637 10.293 11.499 10.3125C8.6076 10.2984 5.8276 11.3783 3.76528 13.3169C2.2843 14.7211 1.25856 16.5043 0.811219 18.4525C0.733465 18.797 0.737666 19.1538 0.823509 19.4965C0.909352 19.8393 1.07464 20.1591 1.30716 20.4325C1.54796 20.7118 1.85118 20.9358 2.1945 21.0881C2.53782 21.2404 2.91249 21.3171 3.29091 21.3125H19.7072C20.0867 21.3127 20.4614 21.2313 20.8035 21.0742C21.1457 20.9171 21.4465 20.6884 21.6837 20.405C21.9121 20.1348 22.075 19.8196 22.1607 19.482C22.2465 19.1444 22.2529 18.7928 22.1797 18.4525Z" fill="#565563"/>
</g>
<defs>
<clipPath id="clip0_193_1017">
<rect width="23" height="22" fill="white"/>
</clipPath>
</defs>
</svg>
