<svg width="84" height="84" viewBox="0 0 84 84" fill="none" xmlns="http://www.w3.org/2000/svg">
<path d="M42 73.5C34.65 73.5 28.1458 71.2693 22.4875 66.808C16.8292 62.3467 13.1542 56.644 11.4625 49.7C11.2292 48.825 11.4042 48.0235 11.9875 47.2955C12.5708 46.5675 13.3583 46.144 14.35 46.025C15.2833 45.9083 16.1292 46.0833 16.8875 46.55C17.6458 47.0167 18.1708 47.7167 18.4625 48.65C19.8625 53.9 22.75 58.1875 27.125 61.5125C31.5 64.8375 36.4583 66.5 42 66.5C48.825 66.5 54.6152 64.1235 59.3705 59.3705C64.1258 54.6175 66.5023 48.8273 66.5 42C66.4977 35.1727 64.1212 29.3837 59.3705 24.633C54.6198 19.8823 48.8297 17.5047 42 17.5C37.975 17.5 34.2125 18.4333 30.7125 20.3C27.2125 22.1667 24.2667 24.7333 21.875 28H28C28.9917 28 29.8235 28.336 30.4955 29.008C31.1675 29.68 31.5023 30.5107 31.5 31.5C31.4977 32.4893 31.1617 33.3212 30.492 33.9955C29.8223 34.6698 28.9917 35.0047 28 35H14C13.0083 35 12.1777 34.664 11.508 33.992C10.8383 33.32 10.5023 32.4893 10.5 31.5V17.5C10.5 16.5083 10.836 15.6777 11.508 15.008C12.18 14.3383 13.0107 14.0023 14 14C14.9893 13.9977 15.8212 14.3337 16.4955 15.008C17.1698 15.6823 17.5047 16.513 17.5 17.5V22.225C20.475 18.4917 24.1068 15.6042 28.3955 13.5625C32.6842 11.5208 37.219 10.5 42 10.5C46.375 10.5 50.4735 11.3318 54.2955 12.9955C58.1175 14.6592 61.4425 16.9038 64.2705 19.7295C67.0985 22.5552 69.3443 25.8802 71.008 29.7045C72.6717 33.5288 73.5023 37.6273 73.5 42C73.4977 46.3727 72.667 50.4712 71.008 54.2955C69.349 58.1198 67.1032 61.4448 64.2705 64.2705C61.4378 67.0962 58.1128 69.342 54.2955 71.008C50.4782 72.674 46.3797 73.5047 42 73.5ZM45.5 40.6L54.25 49.35C54.8917 49.9917 55.2125 50.8083 55.2125 51.8C55.2125 52.7917 54.8917 53.6083 54.25 54.25C53.6083 54.8917 52.7917 55.2125 51.8 55.2125C50.8083 55.2125 49.9917 54.8917 49.35 54.25L39.55 44.45C39.2 44.1 38.9375 43.7068 38.7625 43.2705C38.5875 42.8342 38.5 42.3815 38.5 41.9125V28C38.5 27.0083 38.836 26.1777 39.508 25.508C40.18 24.8383 41.0107 24.5023 42 24.5C42.9893 24.4977 43.8212 24.8337 44.4955 25.508C45.1698 26.1823 45.5047 27.013 45.5 28V40.6Z" fill="#AD2020"/>
</svg>
