<svg width="150" height="150" viewBox="0 0 150 150" fill="none" xmlns="http://www.w3.org/2000/svg">
<path fill-rule="evenodd" clip-rule="evenodd" d="M74.9991 80.0628C66.6028 80.0628 59.7715 73.2319 59.7715 64.8359C59.7715 56.4388 66.6024 49.6079 74.9991 49.6079C83.3958 49.6079 90.2267 56.4392 90.2267 64.8359C90.2267 73.2319 83.3954 80.0628 74.9991 80.0628ZM74.9991 52.5374C68.218 52.5374 62.7013 58.0541 62.7013 64.8355C62.7013 71.6163 68.218 77.133 74.9991 77.133C81.7802 77.133 87.2972 71.6163 87.2972 64.8355C87.2972 58.0541 81.7799 52.5374 74.9991 52.5374Z" fill="#AD2020"/>
<path fill-rule="evenodd" clip-rule="evenodd" d="M70.8144 91.9767C70.43 91.9767 70.05 91.913 69.6846 91.787L62.5658 89.3306C61.6921 89.0295 60.9876 88.4057 60.5827 87.5749C60.1779 86.7437 60.1208 85.8042 60.4222 84.9309L61.3807 82.1533C60.7028 81.6211 60.0575 81.0498 59.4505 80.4457L56.8107 81.7312C56.3339 81.9633 55.8245 82.0806 55.2968 82.0806C53.9819 82.0806 52.7597 81.3173 52.184 80.1349L48.8867 73.3635C48.0514 71.6472 48.768 69.5717 50.4836 68.7364L53.1231 67.4513C53.0217 66.6011 52.9705 65.7412 52.9691 64.8786L50.1919 63.9204C48.3877 63.2979 47.4264 61.3239 48.0489 59.5197L50.505 52.4005C50.9867 51.0053 52.3013 50.0679 53.7764 50.0679C54.1608 50.0679 54.5408 50.1316 54.9058 50.2576L57.6827 51.216C58.2156 50.5375 58.7865 49.8921 59.3907 49.2856L58.1048 46.6454C57.7003 45.8146 57.6432 44.8754 57.945 44.0014C58.2464 43.1273 58.8702 42.4228 59.7021 42.0183L66.4721 38.7213C66.9486 38.4892 67.4579 38.3715 67.986 38.3715C69.3009 38.3715 70.5231 39.1352 71.0985 40.3176L72.3843 42.9578C73.2359 42.8564 74.0978 42.8045 74.9574 42.8034L75.9159 40.0262C76.3975 38.631 77.7121 37.6933 79.1869 37.6933C79.5716 37.6933 79.9512 37.7573 80.3166 37.8836L87.4355 40.3397C88.3088 40.6408 89.0137 41.2646 89.4185 42.0961C89.8234 42.927 89.8798 43.8661 89.5784 44.7401L88.6203 47.5177C89.2985 48.0502 89.9438 48.6212 90.5504 49.2253L93.1902 47.9395C93.6671 47.7073 94.1764 47.5897 94.7044 47.5897C96.0197 47.5897 97.2415 48.3537 97.8173 49.5357L101.115 56.3068C101.519 57.138 101.576 58.0767 101.275 58.9508C100.973 59.8249 100.349 60.5294 99.518 60.9339L96.8782 62.2197C96.9799 63.0702 97.0311 63.9298 97.0325 64.7924L99.8094 65.7509C101.613 66.3731 102.575 68.3468 101.953 70.151L99.4959 77.2705C99.0146 78.6657 97.7 79.6031 96.2249 79.6031C95.8405 79.6031 95.4609 79.5391 95.0958 79.4134L92.3186 78.4553C91.7864 79.1328 91.2155 79.7782 90.6109 80.3858L91.8964 83.026C92.7321 84.7409 92.0162 86.8163 90.3006 87.6527L83.5291 90.9497C83.0523 91.1822 82.543 91.2995 82.0149 91.2995C80.7 91.2995 79.4779 90.5358 78.9021 89.3531L77.6166 86.7133C76.7654 86.815 75.9038 86.8666 75.0439 86.8672L74.0854 89.6448C73.6037 91.0396 72.2892 91.9767 70.8144 91.9767ZM59.7703 77.1951C60.1748 77.1951 60.572 77.3619 60.8568 77.6764C61.7793 78.6951 62.8239 79.6193 63.9606 80.4228C64.4921 80.7989 64.7122 81.481 64.4997 82.0969L63.1921 85.8862C63.1298 86.0669 63.1807 86.2181 63.2167 86.2918C63.2527 86.3655 63.3402 86.4991 63.5212 86.5613L70.6407 89.0178C70.6981 89.0375 70.7563 89.0475 70.8144 89.0475C71.0023 89.0475 71.23 88.9368 71.3155 88.6894L72.6234 84.9001C72.8356 84.2845 73.4318 83.8865 74.0792 83.9146C75.4678 83.9824 76.8657 83.8983 78.2173 83.6661C78.8585 83.5551 79.4969 83.8827 79.782 84.4682L81.5357 88.0697C81.643 88.2905 81.8537 88.369 82.0149 88.369C82.0945 88.369 82.1724 88.3507 82.2461 88.315L89.0172 85.0177C89.2801 84.8893 89.3905 84.571 89.2621 84.3073L87.5085 80.7055C87.2233 80.1201 87.359 79.4169 87.8417 78.9792C88.8614 78.0546 89.786 77.01 90.5888 75.8743C90.9649 75.3431 91.6463 75.1227 92.2625 75.3355L96.0515 76.6425C96.1086 76.6618 96.1675 76.6719 96.2256 76.6719C96.4138 76.6719 96.6419 76.5612 96.7273 76.3134L99.1841 69.1942C99.2793 68.9174 99.1315 68.6143 98.8547 68.5188L95.0657 67.2115C94.4501 66.999 94.0487 66.4059 94.0806 65.7558C94.148 64.3637 94.0643 62.9716 93.8321 61.6176C93.7217 60.9758 94.0484 60.338 94.6342 60.0529L98.2357 58.2985C98.408 58.2145 98.4786 58.0722 98.5056 57.9944C98.5322 57.9165 98.5647 57.7608 98.4807 57.5881L95.1837 50.8171C95.0761 50.5967 94.8657 50.5181 94.7045 50.5181C94.6245 50.5181 94.547 50.5365 94.473 50.5724L90.8719 52.3265C90.286 52.6112 89.5826 52.4756 89.1445 51.9925C88.2227 50.9752 87.1784 50.0513 86.0406 49.2461C85.5091 48.87 85.2894 48.1883 85.5019 47.5727L86.8088 43.7834C86.8714 43.6021 86.8202 43.4512 86.7842 43.3768C86.7483 43.3031 86.6611 43.1699 86.4804 43.1076L79.3606 40.6511C79.3035 40.6318 79.2447 40.6217 79.1869 40.6217C78.9986 40.6217 78.7706 40.7325 78.6851 40.9802L77.3779 44.7696C77.1654 45.3851 76.5692 45.7852 75.9214 45.7547C74.5335 45.6869 73.1359 45.771 71.7836 46.0032C71.1428 46.1146 70.5037 45.7865 70.2185 45.2007L68.4645 41.5986C68.3569 41.3785 68.1465 41.2996 67.9856 41.2996C67.9057 41.2996 67.8282 41.318 67.7548 41.3539L60.9834 44.6512C60.8111 44.735 60.7408 44.8775 60.7142 44.9554C60.6872 45.0333 60.655 45.1893 60.7388 45.3613L62.4924 48.9628C62.7779 49.5489 62.6419 50.2524 62.1589 50.6898C61.1415 51.6116 60.217 52.6562 59.4118 53.7943C59.036 54.3258 58.3546 54.5459 57.7384 54.3328L53.9497 53.0255C53.8926 53.0057 53.8338 52.9961 53.776 52.9961C53.5874 52.9961 53.3594 53.1071 53.2736 53.3549L50.8175 60.4733C50.722 60.7505 50.8697 61.0536 51.1466 61.1491L54.9356 62.4568C55.5511 62.6689 55.9525 63.262 55.9207 63.9122C55.8532 65.306 55.9366 66.6984 56.1691 68.0503C56.2795 68.6925 55.9529 69.3302 55.3667 69.6157L51.7656 71.3694C51.5023 71.4974 51.3922 71.8164 51.5203 72.0801L54.8172 78.8505C54.9248 79.0709 55.1352 79.1495 55.2965 79.1495C55.3764 79.1495 55.4542 79.1311 55.5276 79.0951L59.1294 77.3415C59.3342 77.2432 59.5533 77.1951 59.7703 77.1951Z" fill="#AD2020"/>
<path fill-rule="evenodd" clip-rule="evenodd" d="M95.9399 123.041H54.4101C53.6007 123.041 52.9454 122.385 52.9454 121.576V121.48C52.9454 111.486 49.3221 102.042 42.7438 94.8883C34.8194 86.2715 30.7058 75.0651 31.1605 63.3338C31.5996 52.0118 36.3596 41.4047 44.5632 33.4668C52.7641 25.5317 63.522 21.1175 74.8565 21.0372L75.1755 21.0358C99.4635 21.0358 119.224 40.796 119.224 65.0842C119.224 76.0218 115.186 86.5099 107.855 94.6152C101.116 102.067 97.4046 111.545 97.4046 121.304V121.576C97.4046 122.385 96.7486 123.041 95.9399 123.041ZM55.8536 120.111H94.4923C94.7816 110.048 98.7294 100.338 105.683 92.6505C112.525 85.0846 116.294 75.2949 116.294 65.0846C116.294 42.4116 97.8481 23.9659 75.1753 23.9659L74.8774 23.9669C52.8573 24.1226 34.9402 41.4645 34.0879 63.4471C33.6634 74.4002 37.5029 84.862 44.9002 92.9051C51.6755 100.273 55.5369 109.888 55.8536 120.111ZM74.4281 15.4806C73.6187 15.4806 72.9633 14.8252 72.9633 14.0158V1.46786C72.9633 0.658497 73.6187 0.0027771 74.4281 0.0027771C75.2371 0.0027771 75.8928 0.6585 75.8928 1.46786V14.0162C75.8928 14.8252 75.2371 15.4806 74.4281 15.4806ZM100.676 21.5381C100.437 21.5381 100.193 21.479 99.9687 21.3547C99.2607 20.9634 99.0047 20.0717 99.396 19.364L105.472 8.38424C105.864 7.67696 106.756 7.42056 107.463 7.81191C108.171 8.20362 108.427 9.09498 108.036 9.80295L101.959 20.7824C101.692 21.2654 101.192 21.5381 100.676 21.5381ZM119.471 40.9389C118.968 40.9389 118.479 40.6804 118.207 40.216C117.797 39.5184 118.03 38.6208 118.727 38.2108L129.546 31.8525C130.244 31.4428 131.141 31.6761 131.551 32.3733C131.961 33.0709 131.728 33.9685 131.03 34.3785L120.212 40.7368C119.978 40.8735 119.723 40.9389 119.471 40.9389ZM138.354 66.2871C138.34 66.2871 138.328 66.2871 138.315 66.2868L125.77 65.9601C124.961 65.939 124.323 65.2667 124.344 64.458C124.365 63.649 125.053 63.0147 125.846 63.0313L138.391 63.358C139.2 63.3791 139.838 64.0518 139.817 64.8608C139.796 65.6563 139.145 66.2871 138.354 66.2871ZM129.779 98.2204C129.497 98.2204 129.212 98.1391 128.961 97.9695L118.56 90.949C117.889 90.496 117.712 89.5856 118.165 88.915C118.617 88.2451 119.528 88.0676 120.199 88.5206L130.6 95.5411C131.27 95.9937 131.447 96.9045 130.994 97.5747C130.711 97.9938 130.25 98.2204 129.779 98.2204ZM49.3248 21.8367C48.8092 21.8367 48.3092 21.5641 48.042 21.081L41.9654 10.1012C41.5737 9.39326 41.8301 8.50224 42.5378 8.11053C43.2461 7.71952 44.1371 7.97524 44.5288 8.68286L50.6054 19.6623C50.9971 20.3706 50.7407 21.2616 50.0327 21.6533C49.8082 21.7779 49.5649 21.8367 49.3248 21.8367ZM30.5305 41.2374C30.2783 41.2374 30.0229 41.1727 29.79 41.0353L18.9708 34.6771C18.2736 34.2674 18.0403 33.3694 18.45 32.6719C18.8601 31.9746 19.7584 31.741 20.4553 32.1514L31.2741 38.5093C31.9717 38.9194 32.205 39.8173 31.7949 40.5145C31.5219 40.9789 31.0326 41.2374 30.5305 41.2374ZM11.6478 66.5859C10.8564 66.5859 10.2049 65.9548 10.1841 65.1593C10.163 64.3506 10.8018 63.6776 11.6101 63.6568L24.1546 63.3302C24.9588 63.3184 25.6363 63.9478 25.657 64.7565C25.6781 65.5652 25.0394 66.2378 24.2307 66.2589L11.6865 66.5856C11.6734 66.5856 11.6606 66.5859 11.6478 66.5859ZM20.222 98.5192C19.7514 98.5192 19.2895 98.2933 19.0064 97.8739C18.5538 97.2033 18.7306 96.2929 19.4012 95.8403L29.8021 88.8197C30.4727 88.3668 31.3835 88.544 31.8361 89.2142C32.2887 89.8848 32.1119 90.7952 31.4413 91.2478L21.04 98.2687C20.7892 98.4382 20.504 98.5192 20.222 98.5192Z" fill="#AD2020"/>
<path fill-rule="evenodd" clip-rule="evenodd" d="M97.3127 132.026H51.1915C48.5282 132.026 46.3613 129.86 46.3613 127.197V124.942C46.3613 122.278 48.5282 120.112 51.1915 120.112H97.3127C99.9761 120.112 102.143 122.278 102.143 124.942V127.197C102.143 129.86 99.9761 132.026 97.3127 132.026ZM51.1915 123.041C50.1434 123.041 49.2912 123.893 49.2912 124.941V127.197C49.2912 128.244 50.1434 129.097 51.1915 129.097H97.3127C98.3605 129.097 99.2128 128.244 99.2128 127.196V124.941C99.2128 123.893 98.3605 123.041 97.3127 123.041H51.1915Z" fill="#AD2020"/>
<path fill-rule="evenodd" clip-rule="evenodd" d="M91.6563 141.012H56.8478C54.1844 141.012 52.0176 138.845 52.0176 136.182V133.927C52.0176 131.264 54.1844 129.097 56.8474 129.097H91.6565C94.3202 129.097 96.487 131.264 96.487 133.927V136.182C96.487 138.845 94.3196 141.012 91.6563 141.012ZM56.8472 132.026C55.7994 132.026 54.9468 132.879 54.9468 133.927V136.182C54.9468 137.23 55.7994 138.082 56.8475 138.082L91.656 138.082C92.7038 138.082 93.5568 137.23 93.5568 136.181V133.927C93.5568 132.879 92.7038 132.026 91.656 132.026L56.8472 132.026Z" fill="#AD2020"/>
<path fill-rule="evenodd" clip-rule="evenodd" d="M80.1358 149.997H68.366C62.604 149.997 57.916 145.309 57.916 139.547C57.916 138.738 58.5714 138.082 59.3808 138.082H89.1215C89.9308 138.082 90.5862 138.738 90.5862 139.547C90.5862 145.309 85.8986 149.997 80.1358 149.997ZM60.9891 141.012C61.6725 144.46 64.7206 147.068 68.3664 147.068H80.1361C83.7819 147.068 86.8304 144.46 87.5138 141.012H60.9891Z" fill="#AD2020"/>
</svg>
