<svg width="64" height="64" viewBox="0 0 64 64" fill="none" xmlns="http://www.w3.org/2000/svg">
<path d="M35.4167 63.75C34.4132 63.75 33.5727 63.41 32.895 62.73C32.2174 62.05 31.8774 61.2094 31.875 60.2083C31.8727 59.2072 32.2127 58.3667 32.895 57.6867C33.5774 57.0067 34.4179 56.6667 35.4167 56.6667H56.6667V7.08333H35.4167C34.4132 7.08333 33.5727 6.74333 32.895 6.06333C32.2174 5.38333 31.8774 4.54278 31.875 3.54167C31.8727 2.54056 32.2127 1.7 32.895 1.02C33.5774 0.34 34.4179 0 35.4167 0H56.6667C58.6146 0 60.2827 0.694167 61.6711 2.0825C63.0594 3.47083 63.7524 5.13778 63.75 7.08333V56.6667C63.75 58.6146 63.057 60.2827 61.6711 61.671C60.2851 63.0594 58.617 63.7524 56.6667 63.75H35.4167ZM28.9531 35.4167H3.54168C2.53821 35.4167 1.69765 35.0767 1.02001 34.3967C0.342374 33.7167 0.00237332 32.8761 1.22126e-05 31.875C-0.0023489 30.8739 0.337652 30.0333 1.02001 29.3533C1.70237 28.6733 2.54293 28.3333 3.54168 28.3333H28.9531L22.3125 21.6927C21.6632 21.0434 21.3386 20.2465 21.3386 19.3021C21.3386 18.3576 21.6632 17.5313 22.3125 16.8229C22.9618 16.1146 23.7882 15.7451 24.7917 15.7144C25.7951 15.6837 26.6511 16.0237 27.3594 16.7344L40.0208 29.3958C40.7292 30.1042 41.0833 30.9306 41.0833 31.875C41.0833 32.8194 40.7292 33.6458 40.0208 34.3542L27.3594 47.0156C26.6511 47.724 25.8105 48.064 24.8377 48.0356C23.8649 48.0073 23.0232 47.6378 22.3125 46.9271C21.6632 46.2188 21.3539 45.3782 21.3846 44.4054C21.4153 43.4326 21.7541 42.6204 22.4011 41.9688L28.9531 35.4167Z" fill="#AD2020"/>
</svg>
