<svg width="56" height="56" viewBox="0 0 56 56" fill="none" xmlns="http://www.w3.org/2000/svg">
<path d="M21.7214 15.6566C21.5051 15.8725 21.3335 16.1289 21.2164 16.4112C21.0993 16.6935 21.0391 16.996 21.0391 17.3016C21.0391 17.6072 21.0993 17.9098 21.2164 18.1921C21.3335 18.4744 21.5051 18.7308 21.7214 18.9466L30.7748 28L21.7214 37.0533C21.2852 37.4896 21.0401 38.0813 21.0401 38.6983C21.0401 39.3153 21.2852 39.907 21.7214 40.3433C22.1577 40.7796 22.7494 41.0247 23.3664 41.0247C23.9834 41.0247 24.5752 40.7796 25.0114 40.3433L35.7214 29.6333C35.9377 29.4174 36.1094 29.161 36.2264 28.8788C36.3435 28.5965 36.4038 28.2939 36.4038 27.9883C36.4038 27.6827 36.3435 27.3801 36.2264 27.0978C36.1094 26.8156 35.9377 26.5592 35.7214 26.3433L25.0114 15.6333C24.1248 14.7466 22.6314 14.7466 21.7214 15.6566Z" fill="#AD2020"/>
</svg>
