<svg width="85" height="85" viewBox="0 0 85 85" fill="none" xmlns="http://www.w3.org/2000/svg">
<g clip-path="url(#clip0_600_1239)">
<path fill-rule="evenodd" clip-rule="evenodd" d="M43.0012 6.16675C47.707 6.16673 52.3666 7.09356 56.7141 8.89435C61.0616 10.6951 65.0119 13.3346 68.3393 16.662C71.6668 19.9894 74.3062 23.9397 76.107 28.2872C77.9078 32.6347 78.8347 37.2943 78.8347 42C78.8347 61.7903 62.7915 77.8335 43.0012 77.8335C23.2112 77.8335 7.16797 61.7903 7.16797 42C7.16797 22.2099 23.2112 6.16675 43.0012 6.16675ZM46.5847 45.5835H39.418C30.5467 45.5835 22.9305 50.9563 19.6455 58.6259C24.8432 65.9142 33.3672 70.6667 43.0012 70.6667C52.6353 70.6667 61.1593 65.9142 66.3571 58.6254C63.0722 50.9563 55.456 45.5835 46.5847 45.5835ZM43.0012 16.9167C37.0642 16.9167 32.2512 21.7297 32.2512 27.6668C32.2512 33.6038 37.0642 38.4168 43.0012 38.4168C48.9383 38.4168 53.7512 33.6038 53.7512 27.6668C53.7512 21.7297 48.9384 16.9167 43.0012 16.9167Z" fill="#AD2020"/>
</g>
<defs>
<clipPath id="clip0_600_1239">
<rect width="85" height="85" fill="white"/>
</clipPath>
</defs>
</svg>
