<svg width="20" height="14" viewBox="0 0 20 14" fill="none" xmlns="http://www.w3.org/2000/svg">
<path d="M16 0C17.8856 0 18.8283 0.000151062 19.4141 0.585938C19.9998 1.17172 20 2.11438 20 4V10C20 11.8856 19.9998 12.8283 19.4141 13.4141C18.8283 13.9998 17.8856 14 16 14H4C2.11438 14 1.17172 13.9998 0.585938 13.4141C0.000151081 12.8283 0 11.8856 0 10V4C0 2.11438 0.000151062 1.17172 0.585938 0.585938C1.17172 0.000151069 2.11438 0 4 0H16ZM15 10C14.4477 10 14 10.4477 14 11C14 11.5523 14.4477 12 15 12H17C17.5523 12 18 11.5523 18 11C18 10.4477 17.5523 10 17 10H15ZM10 4C8.34315 4 7 5.34315 7 7C7 8.65685 8.34315 10 10 10C11.6569 10 13 8.65685 13 7C13 5.34315 11.6569 4 10 4ZM10 6C10.5523 6 11 6.44772 11 7C11 7.55228 10.5523 8 10 8C9.44771 8 9 7.55228 9 7C9 6.44772 9.44771 6 10 6ZM3 2C2.44772 2 2 2.44772 2 3C2 3.55228 2.44772 4 3 4H5C5.55228 4 6 3.55228 6 3C6 2.44772 5.55228 2 5 2H3Z" fill="#565563"/>
</svg>
