<svg width="59" height="70" viewBox="0 0 59 70" fill="none" xmlns="http://www.w3.org/2000/svg">
<path d="M24.2083 0L34.5833 0.00345808V20.75C34.5834 21.5971 34.8944 22.4146 35.4573 23.0476C36.0202 23.6806 36.7958 24.085 37.637 24.1841L38.0417 24.2083H58.7917V44.9583C58.7917 47.71 57.6986 50.3489 55.7529 52.2946C53.8072 54.2403 51.1683 55.3333 48.4167 55.3333H44.9583V58.7917C44.9583 61.5433 43.8653 64.1822 41.9196 66.1279C39.9739 68.0736 37.335 69.1667 34.5833 69.1667H10.375C7.62338 69.1667 4.98446 68.0736 3.03877 66.1279C1.09308 64.1822 0 61.5433 0 58.7917V24.2083C0 21.4567 1.09308 18.8178 3.03877 16.8721C4.98446 14.9264 7.62338 13.8333 10.375 13.8333H13.8333V10.375C13.8333 7.62338 14.9264 4.98446 16.8721 3.03877C18.8178 1.09308 21.4567 0 24.2083 0ZM13.8333 20.75H10.375C9.45779 20.75 8.57815 21.1144 7.92959 21.7629C7.28103 22.4115 6.91667 23.2911 6.91667 24.2083V58.7917C6.91667 59.7089 7.28103 60.5885 7.92959 61.2371C8.57815 61.8856 9.45779 62.25 10.375 62.25H34.5833C35.5005 62.25 36.3802 61.8856 37.0287 61.2371C37.6773 60.5885 38.0417 59.7089 38.0417 58.7917V55.3333H24.2083C21.4567 55.3333 18.8178 54.2403 16.8721 52.2946C14.9264 50.3489 13.8333 47.71 13.8333 44.9583V20.75ZM56.7685 17.2917H41.5V2.02313L56.7685 17.2917Z" fill="#AD2020"/>
</svg>
