<svg width="32" height="32" viewBox="0 0 32 32" fill="none" xmlns="http://www.w3.org/2000/svg">
<path d="M16 28C14.3333 28 12.7724 27.6836 11.3173 27.0507C9.86222 26.4178 8.59556 25.5622 7.51734 24.484C6.43911 23.4058 5.58356 22.1391 4.95067 20.684C4.31778 19.2289 4.00089 17.6676 4 16C3.99911 14.3324 4.316 12.7716 4.95067 11.3173C5.58534 9.86311 6.44045 8.59644 7.516 7.51733C8.59156 6.43822 9.85822 5.58267 11.316 4.95067C12.7738 4.31867 14.3351 4.00178 16 4C17.8222 4 19.5502 4.38889 21.184 5.16667C22.8178 5.94444 24.2009 7.04444 25.3333 8.46667V6.66667C25.3333 6.28889 25.4613 5.97244 25.7173 5.71733C25.9733 5.46222 26.2898 5.33422 26.6667 5.33333C27.0436 5.33244 27.3604 5.46044 27.6173 5.71733C27.8742 5.97422 28.0018 6.29067 28 6.66667V12C28 12.3778 27.872 12.6947 27.616 12.9507C27.36 13.2067 27.0436 13.3342 26.6667 13.3333H21.3333C20.9556 13.3333 20.6391 13.2053 20.384 12.9493C20.1289 12.6933 20.0009 12.3769 20 12C19.9991 11.6231 20.1271 11.3067 20.384 11.0507C20.6409 10.7947 20.9573 10.6667 21.3333 10.6667H23.6667C22.7556 9.42222 21.6333 8.44444 20.3 7.73333C18.9667 7.02222 17.5333 6.66667 16 6.66667C13.4 6.66667 11.1947 7.57244 9.384 9.384C7.57334 11.1956 6.66756 13.4009 6.66667 16C6.66578 18.5991 7.57156 20.8049 9.384 22.6173C11.1964 24.4298 13.4018 25.3351 16 25.3333C18.1111 25.3333 20 24.7 21.6667 23.4333C23.3333 22.1667 24.4333 20.5333 24.9667 18.5333C25.0778 18.1778 25.2778 17.9111 25.5667 17.7333C25.8556 17.5556 26.1778 17.4889 26.5333 17.5333C26.9111 17.5778 27.2111 17.7387 27.4333 18.016C27.6556 18.2933 27.7222 18.5991 27.6333 18.9333C26.9889 21.5778 25.5889 23.7502 23.4333 25.4507C21.2778 27.1511 18.8 28.0009 16 28ZM17.3333 15.4667L20.6667 18.8C20.9111 19.0444 21.0333 19.3556 21.0333 19.7333C21.0333 20.1111 20.9111 20.4222 20.6667 20.6667C20.4222 20.9111 20.1111 21.0333 19.7333 21.0333C19.3556 21.0333 19.0444 20.9111 18.8 20.6667L15.0667 16.9333C14.9333 16.8 14.8333 16.6502 14.7667 16.484C14.7 16.3178 14.6667 16.1453 14.6667 15.9667V10.6667C14.6667 10.2889 14.7947 9.97244 15.0507 9.71733C15.3067 9.46222 15.6231 9.33422 16 9.33333C16.3769 9.33244 16.6938 9.46044 16.9507 9.71733C17.2076 9.97422 17.3351 10.2907 17.3333 10.6667V15.4667Z" fill="#565563"/>
</svg>
