<svg width="24" height="24" viewBox="0 0 24 24" fill="none" xmlns="http://www.w3.org/2000/svg">
<path d="M10.1719 9C10.437 9.00008 10.6914 9.1055 10.8789 9.29297L12.707 11.1211C13.2696 11.6836 14.0326 11.9999 14.8281 12H18C18.9883 12.0007 19.5067 12.0132 19.9082 12.2178C20.2845 12.4095 20.5905 12.7155 20.7822 13.0918C21.0002 13.5196 21 14.0801 21 15.2002V17.7998C21 18.9199 21.0002 19.4804 20.7822 19.9082C20.5905 20.2845 20.2845 20.5905 19.9082 20.7822C19.4804 21.0002 18.9199 21 17.7998 21H6.2002C5.08009 21 4.51962 21.0002 4.0918 20.7822C3.71554 20.5905 3.40951 20.2845 3.21777 19.9082C2.99979 19.4804 3 18.9199 3 17.7998V12C3 11.0681 3.0001 10.6019 3.15234 10.2344C3.35533 9.74452 3.74453 9.35533 4.23438 9.15234C4.60192 9.0001 5.06812 9 6 9H10.1719ZM14 3C15.8856 3 16.8283 3.00015 17.4141 3.58594C17.9998 4.17172 18 5.11438 18 7V10H14.8281C14.563 9.99992 14.3086 9.8945 14.1211 9.70703L12.293 7.87891C11.7304 7.31637 10.9674 7.00008 10.1719 7H6C6 5.11438 6.00015 4.17172 6.58594 3.58594C7.17172 3.00015 8.11438 3 10 3H14Z" fill="#565563"/>
</svg>
