<svg width="150" height="150" viewBox="0 0 150 150" fill="none" xmlns="http://www.w3.org/2000/svg">
<path d="M74.4262 17.1926C74.8924 17.1926 75.3395 17.0074 75.6691 16.6777C75.9988 16.3481 76.184 15.901 76.184 15.4348V8.55469C76.184 8.08849 75.9988 7.64138 75.6691 7.31173C75.3395 6.98207 74.8924 6.79688 74.4262 6.79688C73.96 6.79688 73.5129 6.98207 73.1832 7.31173C72.8536 7.64138 72.6684 8.08849 72.6684 8.55469V15.4313C72.6679 15.6624 72.713 15.8913 72.8012 16.105C72.8893 16.3187 73.0187 16.5129 73.182 16.6765C73.3452 16.8401 73.5392 16.9699 73.7527 17.0584C73.9662 17.147 74.195 17.1926 74.4262 17.1926ZM33.018 34.8211C33.3656 34.821 33.7055 34.7178 33.9945 34.5246C34.2836 34.3314 34.5088 34.0568 34.6418 33.7355C34.7747 33.4143 34.8095 33.0608 34.7415 32.7198C34.6736 32.3789 34.5061 32.0657 34.2602 31.8199L29.398 26.9531C29.0665 26.6329 28.6225 26.4557 28.1616 26.4598C27.7007 26.4638 27.2598 26.6486 26.9339 26.9745C26.608 27.3005 26.4231 27.7413 26.4191 28.2022C26.4151 28.6631 26.5923 29.1071 26.9125 29.4387L31.7746 34.3008C31.9374 34.465 32.1311 34.5956 32.3444 34.6848C32.5578 34.7741 32.7867 34.8204 33.018 34.8211ZM16.2027 73.0488H9.32617C8.85997 73.0488 8.41286 73.234 8.08321 73.5637C7.75356 73.8933 7.56836 74.3404 7.56836 74.8066C7.56836 75.2729 7.75356 75.72 8.08321 76.0496C8.41286 76.3793 8.85997 76.5645 9.32617 76.5645H16.2027C16.6689 76.5645 17.116 76.3793 17.4457 76.0496C17.7753 75.72 17.9605 75.2729 17.9605 74.8066C17.9605 74.3404 17.7753 73.8933 17.4457 73.5637C17.116 73.234 16.6689 73.0488 16.2027 73.0488ZM32.5891 114.971L27.7258 119.835C27.4056 120.166 27.2284 120.61 27.2324 121.071C27.2364 121.532 27.4213 121.973 27.7472 122.299C28.0731 122.625 28.514 122.81 28.9749 122.814C29.4358 122.818 29.8798 122.641 30.2113 122.32L35.0746 117.457C35.2425 117.295 35.3764 117.101 35.4685 116.886C35.5607 116.672 35.6092 116.441 35.6112 116.208C35.6132 115.975 35.5687 115.743 35.4803 115.527C35.392 115.311 35.2614 115.115 35.0964 114.95C34.9314 114.785 34.7351 114.654 34.5191 114.566C34.303 114.477 34.0716 114.433 33.8382 114.435C33.6048 114.437 33.3741 114.485 33.1596 114.578C32.9452 114.67 32.7512 114.804 32.5891 114.971ZM118.226 114.158C117.895 113.838 117.451 113.661 116.99 113.665C116.529 113.669 116.088 113.854 115.762 114.18C115.436 114.506 115.251 114.946 115.247 115.407C115.243 115.868 115.42 116.312 115.741 116.644L120.603 121.507C120.766 121.67 120.96 121.8 121.173 121.888C121.386 121.976 121.615 122.022 121.846 122.022C122.077 122.022 122.305 121.976 122.519 121.888C122.732 121.799 122.926 121.67 123.089 121.506C123.252 121.343 123.382 121.149 123.47 120.936C123.558 120.723 123.604 120.494 123.603 120.263C123.603 120.032 123.558 119.804 123.469 119.591C123.381 119.377 123.252 119.184 123.088 119.02L118.226 114.158ZM140.675 71.8992H133.798C133.332 71.8992 132.885 72.0844 132.555 72.4141C132.225 72.7437 132.04 73.1908 132.04 73.657C132.04 74.1232 132.225 74.5704 132.555 74.9C132.885 75.2297 133.332 75.4148 133.798 75.4148H140.675C141.141 75.4148 141.588 75.2297 141.918 74.9C142.247 74.5704 142.432 74.1232 142.432 73.657C142.432 73.1908 142.247 72.7437 141.918 72.4141C141.588 72.0844 141.141 71.8992 140.675 71.8992ZM117.412 33.4922L122.275 28.6301C122.595 28.2986 122.772 27.8545 122.768 27.3936C122.764 26.9327 122.58 26.4919 122.254 26.1659C121.928 25.84 121.487 25.6552 121.026 25.6512C120.565 25.6472 120.121 25.8243 119.789 26.1445L114.926 31.0066C114.758 31.1688 114.624 31.3628 114.532 31.5772C114.44 31.7917 114.392 32.0223 114.39 32.2557C114.388 32.4891 114.432 32.7206 114.52 32.9366C114.609 33.1527 114.739 33.3489 114.904 33.514C115.069 33.679 115.266 33.8095 115.482 33.8979C115.698 33.9863 115.929 34.0308 116.163 34.0288C116.396 34.0267 116.627 33.9782 116.841 33.8861C117.056 33.794 117.25 33.6601 117.412 33.4922ZM104.737 45.7488C104.502 45.7488 104.268 45.7676 104.042 45.784C103.962 45.784 103.88 45.784 103.8 45.7969C103.607 45.8145 103.42 45.8461 103.23 45.8754C103.104 45.8941 102.978 45.9094 102.854 45.9328C102.678 45.9668 102.502 46.0113 102.332 46.05C102.2 46.0828 102.067 46.1133 101.937 46.1508C101.773 46.1988 101.612 46.2551 101.451 46.3113C101.318 46.3582 101.185 46.4051 101.054 46.4566C100.901 46.5176 100.751 46.5832 100.601 46.6524C100.469 46.7133 100.336 46.7766 100.206 46.8422C100.076 46.9078 99.9273 46.9887 99.7902 47.0672C99.6531 47.1457 99.5277 47.2242 99.3988 47.3016C99.2699 47.3789 99.1457 47.4633 99.0227 47.55C98.8996 47.6367 98.7602 47.7434 98.6312 47.843C98.5211 47.9285 98.4098 48.0129 98.3031 48.102C98.2773 48.1242 98.2492 48.143 98.2234 48.1652C98.1932 47.8788 98.1486 47.5941 98.0898 47.3121C98.084 47.284 98.0816 47.2559 98.077 47.2289V47.1984C98.0453 47.0109 97.9914 46.8469 97.9457 46.6711C97.9152 46.5539 97.8918 46.4367 97.8578 46.3195C97.8484 46.2879 97.8426 46.2492 97.8332 46.2176C97.6704 45.6822 97.4582 45.1632 97.1992 44.6672L97.1805 44.6273C97.1395 44.5488 97.1078 44.4668 97.0633 44.393C96.9191 44.1305 96.7715 43.8844 96.6637 43.7297C96.5642 43.563 96.453 43.4036 96.3309 43.2527C96.298 43.2059 96.2605 43.1648 96.2266 43.1191L96.2113 43.1004C96.0357 42.8658 95.8475 42.6409 95.6477 42.4266L95.6254 42.4219C95.5445 42.3352 95.4613 42.2391 95.3828 42.1652C95.3043 42.0914 95.2363 42.0316 95.1637 41.9613C95.0676 41.8699 94.9715 41.7785 94.8719 41.6906C94.8016 41.6297 94.7359 41.5547 94.6645 41.4984L94.6094 41.4527L94.5918 41.4363C94.5203 41.3754 94.4488 41.3355 94.3773 41.2793C94.3059 41.223 94.2297 41.1703 94.1559 41.1152C94.0492 41.0391 93.9437 40.9465 93.8359 40.8809C93.7762 40.8387 93.707 40.8047 93.6461 40.7637C93.5852 40.7227 93.4973 40.6723 93.4223 40.6277C93.2383 40.5106 93.0484 40.4063 92.8504 40.3043C92.759 40.2574 92.6652 40.2152 92.5727 40.1707C92.4473 40.1109 92.3289 40.0453 92.1977 39.9891C92.1496 39.968 92.0898 39.9516 92.0406 39.9305C91.9234 39.8824 91.7992 39.8391 91.6773 39.7957C91.5555 39.7523 91.443 39.702 91.3129 39.6598C91.2918 39.6527 91.252 39.6399 91.2121 39.6293C91.1723 39.6188 91.1219 39.6035 91.0762 39.5895H91.0645C90.8503 39.5228 90.6328 39.4673 90.4129 39.423C90.3777 39.4137 90.3027 39.402 90.243 39.3914C88.9568 39.1297 87.6313 39.1274 86.3441 39.3844C86.2621 39.4008 86.1824 39.4242 86.1004 39.4418C85.8859 39.4898 85.6727 39.5391 85.4629 39.6012C85.3105 39.6457 85.1629 39.6996 85.0129 39.7512C84.8816 39.7969 84.748 39.8414 84.618 39.8918C84.4398 39.9633 84.2664 40.0418 84.0906 40.1262C83.9934 40.1719 83.8961 40.2152 83.8012 40.2633C83.6219 40.3535 83.4496 40.4508 83.275 40.5516C83.1824 40.6055 83.0898 40.6605 82.9984 40.718C82.8414 40.8176 82.6867 40.9195 82.5355 41.0273C82.4184 41.1117 82.3012 41.2008 82.184 41.2898C82.0668 41.3789 81.9613 41.4633 81.8535 41.5547C81.8148 41.5887 81.7715 41.618 81.7363 41.652C81.5547 40.1284 81.023 38.6675 80.1827 37.3836C79.3425 36.0998 78.2165 35.0278 76.893 34.2516C76.7477 34.1625 76.6 34.0758 76.4488 33.9949C76.3996 33.9703 76.3562 33.9363 76.307 33.9129C76.2344 33.8719 76.1699 33.852 76.0973 33.8145C75.9648 33.75 75.8324 33.6879 75.6965 33.6293C75.6074 33.5906 75.5055 33.5332 75.4223 33.5016C75.3391 33.4699 75.257 33.4488 75.1773 33.4184C75.0801 33.3832 74.9828 33.3527 74.8844 33.3199C74.7859 33.2871 74.6594 33.2344 74.5328 33.2027C74.4558 33.1784 74.3776 33.158 74.2984 33.1418C74.2094 33.1184 74.118 33.102 74.0289 33.0809C73.9398 33.0598 73.825 33.0293 73.723 33.0141C73.5432 32.9675 73.3597 32.9365 73.1746 32.9215C73.0293 32.898 72.8781 32.8828 72.7387 32.8711C72.7176 32.8711 72.6883 32.8711 72.666 32.8711C72.6215 32.8711 72.577 32.8582 72.5324 32.8547C72.468 32.8547 72.4035 32.8547 72.3391 32.8547C72.1047 32.8395 71.8586 32.8371 71.5926 32.843C71.4754 32.843 71.35 32.8559 71.2281 32.8629C71.1062 32.8699 71.0102 32.8629 70.8988 32.8805C70.8637 32.8805 70.8273 32.8805 70.7922 32.8887C70.6832 32.9004 70.5871 32.918 70.4828 32.932L70.3363 32.952C70.2438 32.966 70.1441 32.9754 70.0562 32.9918L69.9824 33.007C69.8734 33.0258 69.775 33.048 69.6941 33.068C69.4321 33.1214 69.1731 33.1891 68.9184 33.2707C68.6689 33.343 68.4233 33.4278 68.1824 33.525C68.0945 33.5543 68.0125 33.5883 67.8742 33.648C67.7359 33.7078 67.5895 33.7863 67.4477 33.8566L67.3211 33.9188C67.2367 33.9633 67.1465 33.9996 67.0633 34.0453C66.8664 34.1531 66.6672 34.2797 66.4504 34.4121H66.4422C66.3461 34.4742 66.2547 34.5293 66.1434 34.6078C65.9723 34.725 65.8117 34.8422 65.6687 34.9664C65.6043 35.0168 65.541 35.0684 65.4766 35.1211L65.2738 35.2734C65.2492 35.2934 65.1766 35.3602 65.1566 35.3813L65.1648 35.3906L65.0664 35.4773H65.0594C64.982 35.5453 64.9012 35.6227 64.8156 35.7117C64.8027 35.7258 64.7875 35.7363 64.7746 35.7492C64.7617 35.7621 64.7418 35.7855 64.7254 35.802L64.6223 35.9063C64.4676 36.0727 64.3129 36.2414 64.1535 36.4207C64.1114 36.4691 64.0723 36.5199 64.0363 36.573C63.9414 36.6902 63.8453 36.818 63.7398 36.9645L63.652 37.0816L63.6437 37.0934L63.55 37.2352C63.4938 37.3207 63.4328 37.4121 63.373 37.5129C63.1409 37.882 62.9334 38.266 62.752 38.6625C62.7109 38.7516 62.6699 38.8418 62.6242 38.9449C62.616 38.9672 62.6102 38.9883 62.6008 39.0106C62.3709 39.5657 62.1924 40.1408 62.0676 40.7285C62.0676 40.7531 62.0535 40.7766 62.0477 40.8012C62.0418 40.8258 62.0477 40.8328 62.0406 40.848C61.9902 41.107 61.9469 41.3684 61.9164 41.632C61.8918 41.6098 61.8637 41.5922 61.8391 41.5711C61.8145 41.55 61.7687 41.5055 61.7219 41.468C61.5039 41.2875 61.2812 41.1164 61.0984 40.9992L61.0539 40.9688C61.0387 40.9594 61.0176 40.943 61.0035 40.9336C60.7539 40.7553 60.4924 40.5944 60.2207 40.452L60.1527 40.4145H60.1445C59.8618 40.2568 59.5712 40.1136 59.2738 39.9855C58.6622 39.7285 58.0267 39.5322 57.3766 39.3996C56.6491 39.2493 55.9066 39.1836 55.1641 39.2039C55.0563 39.2039 54.9473 39.2203 54.8383 39.2262C54.7293 39.232 54.652 39.2332 54.5594 39.2449C54.516 39.2449 54.4879 39.252 54.4492 39.2543C54.3262 39.2649 54.2031 39.266 54.0801 39.2813C53.9148 39.3023 53.7543 39.3387 53.5914 39.368C53.5422 39.375 53.4941 39.3809 53.4437 39.3902C53.371 39.3986 53.2989 39.4123 53.2281 39.4313H53.2164C53.1297 39.4512 53.0465 39.4758 52.9609 39.4981L52.852 39.5262C52.8004 39.5379 52.7547 39.5555 52.7055 39.5684C52.3878 39.6575 52.0749 39.7627 51.768 39.8836C51.6508 39.9281 51.5219 39.9691 51.4164 40.016C51.138 40.1348 50.8672 40.2706 50.6055 40.4227C50.5445 40.4555 50.5035 40.4906 50.4461 40.5223C50.2293 40.6488 50.0148 40.7801 49.8086 40.9231C49.7992 40.9301 49.7852 40.9359 49.7758 40.9441C49.5965 41.0613 49.4336 41.1996 49.2648 41.3297C49.2262 41.3613 49.184 41.3883 49.1477 41.4199C47.2275 42.9371 45.9486 45.1213 45.5652 47.5383C45.5559 47.5922 45.55 47.6473 45.5418 47.7012C45.5184 47.8606 45.4855 48.0176 45.4703 48.1793C45.4598 48.2426 45.4539 48.2965 45.4492 48.3539C45.4492 48.3879 45.4422 48.4266 45.4387 48.4617L45.4328 48.518C45.4072 48.7428 45.3951 48.969 45.3965 49.1953V49.3055C45.3965 49.357 45.3895 49.4074 45.3895 49.4578V61.6723C45.373 61.6723 45.3578 61.6863 45.3402 61.6922C44.9487 61.8167 44.5658 61.9671 44.1941 62.1422C44.077 62.1973 43.9598 62.2512 43.8426 62.3098C43.4925 62.4882 43.1543 62.689 42.8301 62.9109C42.7328 62.9777 42.6426 63.0504 42.5488 63.1207C42.2799 63.3206 42.0221 63.535 41.7766 63.7629C41.7016 63.832 41.623 63.8965 41.5516 63.968C41.2681 64.2512 41.0035 64.5526 40.7594 64.8703C40.6891 64.9594 40.6211 65.0508 40.5543 65.1434C40.3101 65.4774 40.0886 65.8274 39.891 66.191C39.8617 66.2449 39.8395 66.3082 39.8113 66.3563C39.6324 66.7065 39.4758 67.0678 39.3426 67.4379C39.3145 67.5152 39.284 67.5891 39.2582 67.6723C39.1246 68.0825 39.0196 68.5014 38.9441 68.9262C38.9277 69.0164 38.916 69.1078 38.902 69.2004C38.8315 69.6498 38.7943 70.1037 38.7906 70.5586V88.8C38.793 94.2568 40.4165 99.5898 43.4549 104.122C46.4934 108.655 50.8099 112.183 55.8566 114.258V141.445C55.8566 141.912 56.0418 142.359 56.3715 142.688C56.7011 143.018 57.1483 143.203 57.6145 143.203H95.8504C96.3166 143.203 96.7637 143.018 97.0934 142.688C97.423 142.359 97.6082 141.912 97.6082 141.445V114.704C102.837 111.415 107.149 106.857 110.142 101.453C113.135 96.0498 114.712 89.9768 114.727 83.7996V55.7379C114.727 53.0892 113.675 50.549 111.802 48.6758C109.93 46.8026 107.39 45.7498 104.741 45.7488H104.737ZM77.227 61.2774H65.3676V42.7969C65.3664 42.3711 65.4057 41.9461 65.4848 41.5277C65.5433 41.28 65.6172 41.0362 65.7062 40.7977C65.759 40.6348 65.7941 40.4695 65.8562 40.3113C66.0094 39.9487 66.1953 39.6007 66.4117 39.2719C66.4316 39.2414 66.4492 39.2109 66.4703 39.1816V39.1758C66.6964 38.8407 66.9525 38.5269 67.2355 38.2383L67.2766 38.1973C67.3937 38.0801 67.5109 37.9758 67.641 37.8715L67.893 37.6664C68.0102 37.5715 68.1426 37.4777 68.2715 37.3922C68.3676 37.3289 68.4672 37.275 68.5668 37.2152C68.684 37.1461 68.8012 37.0734 68.9184 37.0113H68.9266C69.1059 36.9223 69.2887 36.8449 69.475 36.777C69.5195 36.7594 69.5629 36.7418 69.6109 36.7254C69.7281 36.6797 69.8605 36.6445 69.9859 36.6082C70.1113 36.5719 70.2355 36.5379 70.3598 36.5098C70.5238 36.4723 70.6879 36.4359 70.8555 36.4113L70.9082 36.4043C71.3469 36.3445 71.7904 36.3276 72.2324 36.3539H72.3063C72.7025 36.3838 73.0949 36.4517 73.4781 36.5566L73.5098 36.5648C73.8941 36.6734 74.2669 36.819 74.623 36.9996L74.6418 37.009C75.7506 37.5941 76.677 38.473 77.3196 39.5494C77.9623 40.6259 78.2963 41.8585 78.2852 43.1121V61.4063C77.9384 61.3238 77.5834 61.2806 77.227 61.2774ZM48.9168 61.2774V49.3688C48.9175 48.1801 49.23 47.0123 49.8231 45.9821C50.4161 44.9519 51.2689 44.0953 52.2965 43.4977L52.3059 43.4918C52.6234 43.3165 52.9555 43.1691 53.2984 43.0512C53.3359 43.0395 53.3746 43.0254 53.4156 43.0113H53.4273C53.7465 42.9106 54.0734 42.8361 54.4047 42.7887C54.4672 42.7752 54.5307 42.7662 54.5945 42.7617C54.6273 42.7617 54.6625 42.7617 54.6953 42.7523C54.7608 42.751 54.8262 42.7455 54.891 42.7359C55.1244 42.7098 55.3597 42.7035 55.5941 42.7172C55.6891 42.7172 55.7852 42.7172 55.8789 42.7254C56.1349 42.7453 56.3896 42.7793 56.6418 42.8274C56.7227 42.8438 56.8012 42.8672 56.8762 42.8871C57.025 42.9234 57.1773 42.9574 57.3121 43.0043C57.4469 43.0512 57.598 43.1039 57.7387 43.159C57.7867 43.1789 57.8418 43.1941 57.8887 43.2141C57.9355 43.234 57.9496 43.2422 57.9789 43.2563C58.0961 43.3102 58.2215 43.3734 58.341 43.4332L58.5121 43.5234L58.5977 43.5715C58.7605 43.6652 58.9211 43.7648 59.077 43.8738L59.1227 43.9066C59.2785 44.018 59.4285 44.141 59.5762 44.2652C59.6418 44.3227 59.7016 44.3824 59.7613 44.434C59.8785 44.5441 59.9957 44.6566 60.1129 44.7762C60.1504 44.8184 60.1949 44.8688 60.2453 44.9297C60.3414 45.0398 60.4363 45.1524 60.5242 45.2695L60.5676 45.3234C60.6121 45.3856 60.6531 45.45 60.6977 45.5133C60.7785 45.6305 60.8605 45.7477 60.932 45.8719C60.9437 45.8906 60.9531 45.9106 60.9648 45.9293L60.9883 45.968C61.181 46.3071 61.343 46.6628 61.4723 47.0309C61.491 47.0813 61.5109 47.1293 61.5285 47.182C61.6647 47.6012 61.7577 48.0331 61.8063 48.4711C61.8063 48.491 61.8063 48.5098 61.8063 48.5297C61.8273 48.7453 61.8402 48.9609 61.8402 49.1789C61.8402 49.1906 61.8402 49.2012 61.8402 49.2129V61.2832L48.9168 61.2774ZM81.823 68.5746C81.9614 67.7532 82.0339 66.922 82.0398 66.0891C82.0334 65.6313 81.9603 65.177 81.823 64.7402V49.1719C81.823 49.1449 81.823 49.1191 81.823 49.0922C81.8282 48.4671 81.9246 47.8461 82.109 47.2488V47.2348C82.2319 46.8449 82.3912 46.4675 82.5848 46.1074L82.6352 46.0195C82.716 45.8754 82.8004 45.7348 82.8918 45.5977C82.907 45.5754 82.9211 45.552 82.9375 45.5285C83.0348 45.3856 83.1391 45.2473 83.248 45.1125C83.2609 45.0973 83.2691 45.0832 83.2832 45.0668C83.3664 44.9684 83.4402 44.8875 83.5305 44.7961C83.5586 44.768 83.6055 44.7164 83.6301 44.6871L83.7227 44.5922C84.0158 44.2948 84.3377 44.0271 84.6836 43.793C84.7 43.7824 84.7164 43.7742 84.7316 43.7637C85.0625 43.5431 85.4137 43.3548 85.7805 43.2012C85.8016 43.1918 85.8238 43.1859 85.8449 43.1766C86.6197 42.8651 87.4473 42.7059 88.2824 42.7078C88.4571 42.7051 88.6318 42.7149 88.8051 42.7371C88.8582 42.7455 88.9118 42.751 88.9656 42.7535C89.009 42.7535 89.0512 42.7617 89.0945 42.7641C89.2271 42.7737 89.3587 42.7932 89.4883 42.8227C89.5223 42.8297 89.5562 42.8344 89.5902 42.8391C90.8645 43.1066 92.0282 43.7528 92.9289 44.693C93.0984 44.8644 93.2551 45.0481 93.3977 45.2426C93.6406 45.5587 93.854 45.8964 94.0351 46.2516C94.1898 46.5468 94.3184 46.855 94.4195 47.1727C94.6318 47.8187 94.7401 48.4943 94.7406 49.1742V55.7426C94.7406 55.7543 94.7406 55.766 94.7406 55.7777V71.9133C94.7082 73.6168 94.0048 75.2387 92.7832 76.4265C91.5616 77.6143 89.9206 78.2719 88.2168 78.2565C86.513 78.241 84.8842 77.5538 83.6843 76.3441C82.4844 75.1343 81.8105 73.4999 81.809 71.7961L81.823 68.5746ZM98.2703 71.9133C98.2703 71.8746 98.2703 71.8383 98.2703 71.7961V55.6195C98.2938 54.0244 98.9062 52.4942 99.9896 51.3233C101.073 50.1523 102.551 49.4231 104.14 49.276C105.728 49.1289 107.315 49.5741 108.595 50.5262C109.875 51.4783 110.758 52.8699 111.074 54.4336C111.161 54.8613 111.205 55.2967 111.205 55.7332V78.3668C111.205 80.0824 110.524 81.7278 109.311 82.9409C108.098 84.154 106.452 84.8355 104.737 84.8355C103.021 84.8355 101.376 84.154 100.163 82.9409C98.9495 81.7278 98.268 80.0824 98.268 78.3668L98.2703 71.9133ZM94.9586 112.2C94.6948 112.355 94.4762 112.577 94.3243 112.843C94.1724 113.108 94.0925 113.409 94.0926 113.715V139.688H59.3723V113.047C59.3722 112.685 59.2603 112.332 59.0518 112.035C58.8433 111.739 58.5484 111.515 58.2074 111.393C53.5549 109.721 49.5317 106.654 46.6875 102.61C43.8432 98.5667 42.3164 93.7437 42.3156 88.8V70.5621C42.3181 70.1861 42.3574 69.8113 42.4328 69.443C42.4551 69.3258 42.4973 69.2262 42.5254 69.116C42.5844 68.8711 42.6596 68.6303 42.7504 68.3953C42.7984 68.2781 42.8676 68.1609 42.9191 68.0508C43.0185 67.8388 43.1304 67.633 43.2543 67.4344C43.3234 67.3289 43.4031 67.2316 43.4793 67.1297C43.6167 66.9408 43.7654 66.7604 43.9246 66.5895C44.0102 66.5004 44.1027 66.4184 44.193 66.334C44.3659 66.1732 44.5482 66.023 44.7391 65.884C44.8398 65.8113 44.9453 65.7445 45.0508 65.6789C45.2496 65.5546 45.4558 65.4427 45.6684 65.3438C45.7879 65.2875 45.9098 65.2359 46.034 65.1891C46.2476 65.1079 46.466 65.0398 46.6879 64.9852C46.8285 64.95 46.9691 64.916 47.1133 64.8914C47.4352 64.8306 47.7618 64.7977 48.0895 64.793H77.227C77.4815 64.7932 77.7303 64.8682 77.9426 65.0086C78.1549 65.149 78.3213 65.3487 78.4211 65.5828V65.5922C78.4875 65.7494 78.5218 65.9184 78.5219 66.0891C78.5191 69.3205 77.2342 72.4189 74.9492 74.7038C72.6642 76.9888 69.5658 78.2738 66.3344 78.2766H54.8289C54.4427 78.279 54.068 78.4085 53.7628 78.6451C53.4575 78.8818 53.2387 79.2123 53.1402 79.5858C53.0416 79.9592 53.0688 80.3547 53.2175 80.7112C53.3662 81.0676 53.6282 81.3652 53.9629 81.5578C54.1246 81.6492 70.0738 90.7969 70.0738 100.542C70.0743 100.971 70.2315 101.385 70.5157 101.706C70.8 102.026 71.1917 102.232 71.6172 102.285C71.6887 102.294 71.7607 102.299 71.8328 102.299C72.2252 102.299 72.6063 102.167 72.9153 101.925C73.2243 101.683 73.4435 101.345 73.5379 100.964C73.6551 100.506 76.4348 89.7563 85.4031 89.7563C85.8693 89.7563 86.3164 89.5711 86.6461 89.2414C86.9757 88.9117 87.1609 88.4646 87.1609 87.9984C87.1609 87.5322 86.9757 87.0851 86.6461 86.7555C86.3164 86.4258 85.8693 86.2406 85.4031 86.2406C78.9379 86.2406 74.6922 90.5438 72.2898 94.7953C69.8852 89.3578 64.6269 84.7172 60.6648 81.7875H66.3379C68.8009 81.7852 71.2287 81.2024 73.4244 80.0865C75.62 78.9705 77.5218 77.3528 78.9754 75.3645C79.5444 76.8622 80.4665 78.2005 81.6635 79.2656C82.8604 80.3307 84.2967 81.0911 85.8505 81.4823C87.4042 81.8734 89.0294 81.8837 90.588 81.5123C92.1465 81.1408 93.5924 80.3987 94.8027 79.3488C94.9794 81.1548 95.6454 82.8784 96.729 84.3339C97.8126 85.7895 99.2728 86.9218 100.952 87.609C102.632 88.2962 104.467 88.5121 106.26 88.2336C108.053 87.9551 109.736 87.1927 111.128 86.0285C110.753 91.3741 109.086 96.5487 106.27 101.107C103.453 105.666 99.5714 109.473 94.9586 112.2Z" fill="#AD2020"/>
</svg>
