<svg width="150" height="150" viewBox="0 0 150 150" fill="none" xmlns="http://www.w3.org/2000/svg">
<g clip-path="url(#clip0_252_863)">
<path fill-rule="evenodd" clip-rule="evenodd" d="M53.7489 109.751C53.0054 110.495 51.7995 110.495 51.056 109.751C50.3124 109.008 50.3124 107.802 51.056 107.058L70.5451 87.5692C71.2116 86.9027 72.2496 86.8339 72.9932 87.3624L98.6382 102.169L112.261 88.5457L110.1 86.3848C109.088 85.3726 109.483 83.5523 111.048 83.1762L120.538 80.6335C121.95 80.2556 123.254 81.5528 122.86 82.9852L120.299 92.5441C119.922 93.9533 118.147 94.4329 117.115 93.3996L114.954 91.2387L100.304 105.889C99.6982 106.495 98.7542 106.612 98.013 106.186L72.2109 91.2894L53.7489 109.751ZM29.7223 70.9298C34.9488 70.9298 39.1866 75.1676 39.1866 80.3941C39.1866 85.6207 34.9488 89.8585 29.7223 89.8585C24.4957 89.8585 20.2579 85.6207 20.2579 80.3941C20.2579 75.1673 24.4957 70.9298 29.7223 70.9298ZM33.7216 76.3948C30.1685 72.8417 24.0668 75.3703 24.0668 80.3941C24.0668 85.418 30.1685 87.9466 33.7216 84.3935C35.93 82.1848 35.93 78.6032 33.7216 76.3948ZM29.7223 66.3416C21.2499 66.3416 13.5021 70.6752 9.00996 77.7067C7.94355 79.3758 7.94268 81.4105 9.00996 83.0813C18.675 98.2104 40.7692 98.2102 50.4346 83.0813C51.5063 81.4037 51.5063 79.3843 50.4346 77.7067C45.9422 70.6752 38.1946 66.3416 29.7223 66.3416ZM39.6867 72.6897C30.1228 67.4455 18.0876 70.5413 12.2086 79.7449C11.9449 80.158 11.9458 80.6314 12.2086 81.0431C20.3678 93.8171 39.0759 93.8153 47.2359 81.0431C47.4943 80.6388 47.4943 80.1492 47.2359 79.7449C45.3612 76.8105 42.762 74.376 39.6867 72.6897ZM104.064 9.80859C103.012 9.80859 102.159 8.95605 102.159 7.9043C102.159 6.85254 103.012 6 104.064 6H132.836C140.868 6 147.433 12.5651 147.433 20.5978V49.3699C147.433 50.4217 146.581 51.2742 145.529 51.2742C144.477 51.2742 143.625 50.4217 143.625 49.3699V20.5978C143.625 14.6675 138.766 9.80859 132.836 9.80859H104.064ZM143.625 84.0656V112.838C143.625 118.768 138.766 123.627 132.836 123.627H104.064C103.012 123.627 102.16 124.479 102.16 125.531C102.16 126.583 103.012 127.435 104.064 127.435H132.836C140.869 127.435 147.434 120.87 147.434 112.838V84.0656C147.434 83.0139 146.581 82.1613 145.529 82.1613C144.478 82.1613 143.625 83.0139 143.625 84.0656ZM69.368 123.627C70.4197 123.627 71.2723 124.479 71.2723 125.531C71.2723 126.583 70.4197 127.436 69.368 127.436H45.6826C44.6309 127.436 43.7783 126.583 43.7783 125.531C43.7783 124.479 44.6309 123.627 45.6826 123.627H69.368ZM29.8066 49.3699C29.8066 50.4217 28.9541 51.2742 27.9023 51.2742C26.8506 51.2742 25.998 50.4217 25.998 49.3699V20.5978C25.998 12.5651 32.5632 6 40.5958 6H69.368C70.4197 6 71.2723 6.85254 71.2723 7.9043C71.2723 8.95605 70.4197 9.80859 69.368 9.80859H40.5958C34.6658 9.80859 29.8066 14.6675 29.8066 20.5978V49.3699ZM29.7223 53.6716C14.9643 53.6716 3 65.6361 3 80.3938C3 93.2484 12.1242 104.143 24.4781 106.601V113.187C21.4632 113.461 19.108 116.009 19.108 119.069V144.527C19.108 147.78 21.762 150.434 25.0143 150.434H34.4303C37.6825 150.434 40.3365 147.78 40.3365 144.527V119.069C40.3365 116.009 37.9813 113.461 34.9664 113.187V106.601C47.3203 104.143 56.4445 93.2481 56.4445 80.3938C56.4445 65.6361 44.48 53.6716 29.7223 53.6716ZM31.1575 107.078V113.163H28.2867V107.078H31.1575ZM45.9246 64.1915C36.9765 55.2434 22.4678 55.2434 13.5196 64.1915C4.57149 73.1396 4.57149 87.6483 13.5196 96.5965C22.4678 105.545 36.9765 105.545 45.9246 96.5965C54.8728 87.6483 54.8728 73.1396 45.9246 64.1915ZM34.4303 116.972C35.5802 116.972 36.5279 117.919 36.5279 119.069V144.527C36.5279 145.677 35.5802 146.625 34.4303 146.625H25.0143C23.8646 146.625 22.9169 145.677 22.9169 144.527V119.069C22.9169 117.919 23.8646 116.972 25.0143 116.972C28.1528 116.972 31.2914 116.972 34.4303 116.972ZM89.4331 65.2286C88.3813 65.2286 87.5288 64.3761 87.5288 63.3243C87.5288 62.2726 88.3813 61.42 89.4331 61.42H128.315C129.367 61.42 130.219 62.2726 130.219 63.3243C130.219 64.3761 129.367 65.2286 128.315 65.2286H89.4331ZM45.1166 46.0816H128.315C129.367 46.0816 130.219 45.2291 130.219 44.1773C130.219 43.1256 129.367 42.273 128.315 42.273H45.1166C44.0648 42.273 43.2123 43.1256 43.2123 44.1773C43.2123 45.2291 44.0648 46.0816 45.1166 46.0816ZM45.1166 26.9353H128.315C129.367 26.9353 130.219 26.0827 130.219 25.031C130.219 23.9792 129.367 23.1267 128.315 23.1267H45.1166C44.0648 23.1267 43.2123 23.9792 43.2123 25.031C43.2123 26.0824 44.0648 26.9353 45.1166 26.9353ZM118.34 85.1602L115.124 86.0221L117.478 88.3764L118.34 85.1602Z" fill="#AD2020"/>
</g>
<defs>
<clipPath id="clip0_252_863">
<rect width="150" height="150" fill="white"/>
</clipPath>
</defs>
</svg>
